<svg width="33" height="33" viewBox="0 0 33 33" fill="none"
    xmlns="http://www.w3.org/2000/svg">
    <path fill-rule="evenodd" clip-rule="evenodd" d="M16.5 32.1931C25.3366 32.1931 32.5 25.0297 32.5 16.1931C32.5 7.35656 25.3366 0.193115 16.5 0.193115C7.66344 0.193115 0.5 7.35656 0.5 16.1931C0.5 25.0297 7.66344 32.1931 16.5 32.1931ZM7.35377 10.6105C7.35377 8.8671 8.76709 7.45378 10.5105 7.45378H22.3483C24.0917 7.45378 25.505 8.8671 25.505 10.6105C25.505 12.3027 24.1735 13.6839 22.5011 13.7636V20.8698C22.5011 23.0491 20.7344 24.8157 18.5552 24.8157H14.1358C11.9566 24.8157 10.1899 23.0491 10.1899 20.8698V13.7512C8.59707 13.5905 7.35377 12.2457 7.35377 10.6105Z" fill="white"/>
</svg>
