<svg width="36" height="31" viewBox="0 0 36 31" fill="none"
    xmlns="http://www.w3.org/2000/svg">
    <circle cx="18" cy="15.5" r="15.25" fill="white"/>
    <path d="M7.49295 10.6412C7.49281 9.72979 7.77579 8.84087 8.30277 8.09729C8.82975 7.35371 9.57471 6.7922 10.4347 6.49038C11.2946 6.18856 12.2271 6.16133 13.1032 6.41246C13.9793 6.66359 14.7558 7.18068 15.3252 7.89224H11.8913V7.34245C11.0164 7.34245 10.1773 7.68999 9.5587 8.30863C8.94007 8.92726 8.59253 9.7663 8.59253 10.6412C8.59253 11.5161 8.94007 12.3551 9.5587 12.9737C10.1773 13.5924 11.0164 13.9399 11.8913 13.9399V13.3901H15.3252C14.7558 14.1017 13.9793 14.6188 13.1032 14.8699C12.2271 15.121 11.2946 15.0938 10.4347 14.792C9.57471 14.4901 8.82975 13.9286 8.30277 13.1851C7.77579 12.4415 7.49281 11.5526 7.49295 10.6412ZM15.9707 12.2905H11.8913V11.191H16.2566C16.206 11.5765 16.1107 11.9431 15.9707 12.2905ZM16.2566 10.0914C16.2092 9.71404 16.1131 9.34444 15.9707 8.99181H11.8913V10.0914H16.2566ZM4.19423 18.3382C4.19423 17.1144 5.18715 16.1391 6.40327 16.1391H17.3891C17.7742 16.1389 18.1526 16.2399 18.4865 16.4319C18.8203 16.6239 19.0979 16.9002 19.2914 17.2331H11.8913V17.2386H6.40327C5.78641 17.2386 5.2938 17.7301 5.2938 18.3382C5.2938 19.7775 5.97774 20.8496 7.13339 21.5852C8.30994 22.3363 9.98349 22.7365 11.8913 22.7365H16.8613C15.5001 23.482 13.7539 23.8361 11.8913 23.8361C9.85154 23.8361 7.95148 23.4116 6.54182 22.5133C5.11018 21.6006 4.19423 20.1965 4.19423 18.3382ZM11.8913 19.4323V18.3327H19.5883V18.3382C19.5875 18.7231 19.5494 19.0877 19.4739 19.4323H11.8913ZM19.0869 20.5319C18.8816 20.9356 18.6195 21.3078 18.3084 21.6369H16.5677L16.5754 21.6314H11.8913V20.5319H19.0869Z" fill="#3D0073"/>
    <path d="M19.7104 10.6412C19.7103 9.72979 19.9933 8.84087 20.5203 8.09729C21.0472 7.35371 21.7922 6.7922 22.6522 6.49038C23.5121 6.18856 24.4446 6.16133 25.3207 6.41246C26.1968 6.66359 26.9732 7.18068 27.5427 7.89224H24.1087V7.34245C23.2339 7.34245 22.3948 7.68999 21.7762 8.30863C21.1576 8.92726 20.81 9.7663 20.81 10.6412C20.81 11.5161 21.1576 12.3551 21.7762 12.9737C22.3948 13.5924 23.2339 13.9399 24.1087 13.9399V13.3901H27.5427C26.9732 14.1017 26.1968 14.6188 25.3207 14.8699C24.4446 15.121 23.5121 15.0938 22.6522 14.792C21.7922 14.4901 21.0472 13.9286 20.5203 13.1851C19.9933 12.4415 19.7103 11.5526 19.7104 10.6412ZM28.1882 12.2905H24.1087V11.191H28.4741C28.4235 11.5765 28.3282 11.9431 28.1882 12.2905ZM28.4741 10.0914C28.4267 9.71404 28.3306 9.34444 28.1882 8.99181H24.1087V10.0914H28.4741ZM16.4117 18.3382C16.4117 17.1144 17.4046 16.1391 18.6208 16.1391H29.6066C29.9917 16.1389 30.3701 16.2399 30.704 16.4319C31.0378 16.6239 31.3154 16.9002 31.5089 17.2331H24.1087V17.2386H18.6208C18.0039 17.2386 17.5113 17.7301 17.5113 18.3382C17.5113 19.7775 18.1952 20.8496 19.3509 21.5852C20.5274 22.3363 22.201 22.7365 24.1087 22.7365H29.0788C27.7176 23.482 25.9714 23.8361 24.1087 23.8361C22.069 23.8361 20.169 23.4116 18.7593 22.5133C17.3277 21.6006 16.4117 20.1965 16.4117 18.3382ZM24.1087 19.4323V18.3327H31.8058V18.3382C31.805 18.7231 31.7669 19.0877 31.6914 19.4323H24.1087ZM31.3044 20.5319C31.0991 20.9356 30.837 21.3078 30.5259 21.6369H28.7852L28.7929 21.6314H24.1087V20.5319H31.3044Z" fill="#3D0073"/>
</svg>
