<svg width="32" height="33" viewBox="0 0 32 33" fill="none"
    xmlns="http://www.w3.org/2000/svg">
    <path fill-rule="evenodd" clip-rule="evenodd" d="M16.0001 25.6428C17.2016 25.6458 18.3918 25.4113 19.5024 24.9529C20.613 24.4945 21.6221 23.8212 22.4716 22.9716C23.3212 22.1221 23.9945 21.113 24.4529 20.0024C24.9113 18.8918 25.1458 17.7016 25.1428 16.5001C25.1458 15.2986 24.9113 14.1084 24.4529 12.9978C23.9945 11.8872 23.3212 10.8782 22.4716 10.0286C21.6221 9.17904 20.613 8.50571 19.5024 8.0473C18.3918 7.5889 17.2016 7.35446 16.0001 7.35745C14.7986 7.35446 13.6084 7.5889 12.4978 8.0473C11.3872 8.50571 10.3782 9.17904 9.52861 10.0286C8.67904 10.8782 8.00571 11.8872 7.5473 12.9978C7.0889 14.1084 6.85446 15.2986 6.85745 16.5001C6.85446 17.7016 7.0889 18.8918 7.5473 20.0024C8.00571 21.113 8.67904 22.1221 9.52861 22.9716C10.3782 23.8212 11.3872 24.4945 12.4978 24.9529C13.6084 25.4113 14.7986 25.6458 16.0001 25.6428ZM18.5148 17.9454C18.5148 16.6148 17.7148 16.1574 16.1148 15.9681C14.9721 15.8148 14.7428 15.5108 14.7428 14.9748C14.7428 14.4428 15.1254 14.1001 15.8854 14.1001C16.5721 14.1001 16.9548 14.3281 17.1428 14.9001C17.1828 15.0148 17.2975 15.0881 17.4121 15.0881H18.0175C18.0525 15.0892 18.0874 15.0832 18.12 15.0704C18.1527 15.0577 18.1824 15.0385 18.2075 15.0139C18.2325 14.9894 18.2523 14.96 18.2657 14.9277C18.2791 14.8953 18.2858 14.8605 18.2854 14.8255V14.7854C18.1321 13.9454 17.4454 13.1455 16.5721 13.0708V12.2308C16.5721 12.0775 16.4574 11.9628 16.2681 11.9281H15.7655C15.6121 11.9281 15.4681 12.0428 15.4294 12.2308V13.0708C14.2854 13.2255 13.5254 14.1001 13.5254 15.0548C13.5254 16.3108 14.2854 16.8028 15.8854 16.9974C16.9548 17.1855 17.2974 17.4148 17.2974 18.0255C17.2974 18.6308 16.7601 19.0548 16.0401 19.0548C15.0454 19.0548 14.7028 18.6308 14.5895 18.0601C14.5548 17.9108 14.4401 17.8308 14.3255 17.8308H13.6748C13.6396 17.8304 13.6047 17.8372 13.5723 17.8506C13.5398 17.8641 13.5104 17.8841 13.4858 17.9092C13.4613 17.9344 13.4421 17.9643 13.4294 17.9971C13.4167 18.0299 13.4109 18.065 13.4121 18.1001V18.1401C13.5601 19.0881 14.1721 19.7401 15.4294 19.9281V20.7748C15.4294 20.9281 15.5428 21.0308 15.7321 21.0708H16.2801C16.4281 21.0708 16.5321 20.9681 16.5721 20.7748V19.9281C17.7148 19.7401 18.5148 18.9748 18.5148 17.9454ZM12.1521 20.7935C12.7055 21.3001 13.3521 21.6921 14.0575 21.9468C14.1721 22.0268 14.2854 22.1761 14.2854 22.2894V22.8268C14.2854 22.9015 14.2854 22.9415 14.2455 22.9748C14.2121 23.1295 14.0574 23.2041 13.9028 23.1295C12.5164 22.6879 11.3064 21.8169 10.4477 20.6423C9.58908 19.4677 9.12628 18.0504 9.12628 16.5954C9.12628 15.1405 9.58908 13.7232 10.4477 12.5486C11.3064 11.374 12.5164 10.503 13.9028 10.0615C13.9428 10.0268 14.0175 10.0268 14.0575 10.0268C14.2121 10.0615 14.2854 10.1748 14.2854 10.3295V10.8614C14.2854 11.0548 14.2121 11.1694 14.0575 11.2441C13.2783 11.525 12.5705 11.9741 11.9845 12.5594C11.3985 13.1447 10.9486 13.8519 10.6668 14.6308C10.2739 15.689 10.2053 16.8403 10.4696 17.9377C10.7339 19.0351 11.3192 20.0288 12.1508 20.7921M17.7535 10.2134C17.7868 10.0601 17.9415 9.98545 18.0961 10.0601C19.1433 10.401 20.0941 10.9869 20.8693 11.7691C21.6446 12.5513 22.222 13.5072 22.5535 14.5575C22.8271 15.4153 22.9289 16.3187 22.8529 17.2159C22.777 18.1132 22.5249 18.9866 22.111 19.7863C21.6971 20.586 21.1296 21.2962 20.4409 21.8762C19.7522 22.4563 18.9558 22.8948 18.0975 23.1668C18.0575 23.2015 17.9828 23.2014 17.9428 23.2014C17.7881 23.1668 17.7148 23.0535 17.7148 22.8988V22.3668C17.7148 22.1735 17.7881 22.0588 17.9428 21.9841C18.722 21.7032 19.4297 21.2541 20.0157 20.6688C20.6017 20.0835 21.0516 19.3763 21.3335 18.5975C21.5947 17.8949 21.7142 17.1475 21.6851 16.3985C21.6559 15.6495 21.4786 14.9137 21.1635 14.2336C20.8484 13.5535 20.4016 12.9426 19.849 12.4361C19.2965 11.9296 18.649 11.5376 17.9441 11.2828C17.8295 11.2028 17.7161 11.0535 17.7161 10.9001V10.3668C17.7161 10.2868 17.7161 10.2521 17.7561 10.2121" fill="white"/>
</svg>
