<svg width="32" height="33" viewBox="0 0 32 33" fill="none"
    xmlns="http://www.w3.org/2000/svg">
    <g clip-path="url(#clip0_184_462)">
        <path fill-rule="evenodd" clip-rule="evenodd" d="M16 0.193115C24.837 0.193115 32 7.35612 32 16.1931C32 25.0301 24.837 32.1931 16 32.1931C7.163 32.1931 0 25.0301 0 16.1931C0 7.35612 7.163 0.193115 16 0.193115ZM15.829 8.19312H9.277V13.3871H7V15.2481H9.277V17.2011H7V19.0611H9.277V24.1931H15.829C19.769 24.1931 22.767 22.0981 23.92 19.0621H26V17.2021H24.376C24.416 16.8721 24.436 16.5341 24.436 16.1921V16.1461C24.436 15.8421 24.42 15.5421 24.389 15.2481H26V13.3881H23.959C22.835 10.3071 19.814 8.19312 15.829 8.19312ZM21.913 19.0621C20.906 21.1371 18.742 22.5241 15.829 22.5241H11.109V19.0621H21.913ZM22.477 15.2481C22.519 15.5551 22.541 15.8701 22.541 16.1921V16.2371C22.541 16.5661 22.518 16.8871 22.474 17.2011H11.108V15.2481H22.478H22.477ZM15.83 9.85912C18.756 9.85912 20.927 11.2831 21.928 13.3871H11.108V9.85912H15.828H15.83Z" fill="white"/>
    </g>
    <defs>
        <clipPath id="clip0_184_462">
            <rect width="32" height="32" fill="white" transform="translate(0 0.193115)"/>
        </clipPath>
    </defs>
</svg>
