<svg width="24" height="24" viewBox="0 0 24 24" fill="none"
    xmlns="http://www.w3.org/2000/svg">
    <path fill-rule="evenodd" clip-rule="evenodd" d="M5.25 6.06818C5.25 6.75873 5.47827 7.39609 5.86364 7.90909H4.43182C4.05208 7.90909 3.68789 8.05994 3.41937 8.32846C3.15085 8.59698 3 8.96117 3 9.34091V11.3864C3 11.9575 3.33464 12.45 3.81818 12.6807V19.5682C3.81818 20.3585 4.45964 21 5.25 21H18.75C19.1297 21 19.4939 20.8491 19.7624 20.5806C20.031 20.3121 20.1818 19.9479 20.1818 19.5682V12.6807C20.6654 12.4508 21 11.9575 21 11.3864V9.34091C21 8.96117 20.8491 8.59698 20.5806 8.32846C20.3121 8.05994 19.9479 7.90909 19.5682 7.90909H18.1364C18.4782 7.45325 18.6864 6.91122 18.7376 6.34372C18.7888 5.77623 18.6809 5.20569 18.4261 4.69605C18.1713 4.18641 17.7796 3.75779 17.2949 3.45823C16.8102 3.15867 16.2516 3 15.6818 3C14.4905 3 12.8705 3.73718 12 5.54455C11.1295 3.73718 9.50864 3 8.31818 3C7.50445 3 6.72405 3.32325 6.14865 3.89865C5.57325 4.47405 5.25 5.25445 5.25 6.06818ZM11.3618 7.90909C11.127 5.05118 9.25909 4.22727 8.31818 4.22727C7.82994 4.22727 7.3617 4.42123 7.01646 4.76646C6.67123 5.1117 6.47727 5.57994 6.47727 6.06818C6.47727 6.55642 6.67123 7.02466 7.01646 7.3699C7.3617 7.71514 7.82994 7.90909 8.31818 7.90909H11.3618ZM18.9545 12.8182V19.5682C18.9545 19.6224 18.933 19.6745 18.8946 19.7128C18.8563 19.7512 18.8042 19.7727 18.75 19.7727H12.6136V12.8182H18.9545ZM11.3864 19.7727V12.8182H5.04545V19.5682C5.04545 19.6811 5.13709 19.7727 5.25 19.7727H11.3864ZM19.5682 11.5909C19.6224 11.5909 19.6745 11.5694 19.7128 11.531C19.7512 11.4926 19.7727 11.4406 19.7727 11.3864V9.34091C19.7727 9.28666 19.7512 9.23463 19.7128 9.19627C19.6745 9.15791 19.6224 9.13636 19.5682 9.13636H12.6136V11.5909H19.5682ZM4.43182 11.5909H11.3864V9.13636H4.43182C4.37757 9.13636 4.32554 9.15791 4.28718 9.19627C4.24882 9.23463 4.22727 9.28666 4.22727 9.34091V11.3864C4.22727 11.4993 4.31891 11.5909 4.43182 11.5909ZM17.5227 6.06818C17.5227 6.55642 17.3288 7.02466 16.9835 7.3699C16.6383 7.71514 16.1701 7.90909 15.6818 7.90909H12.6382C12.873 5.05118 14.7409 4.22727 15.6818 4.22727C16.1701 4.22727 16.6383 4.42123 16.9835 4.76646C17.3288 5.1117 17.5227 5.57994 17.5227 6.06818Z" fill="#F2F2F2"/>
</svg>
