<svg width="303" height="100" viewBox="0 0 303 100" fill="none"
    xmlns="http://www.w3.org/2000/svg">
    <g opacity="0.6">
        <path d="M135.854 3.67637L138.407 1.02122L140.96 3.67637C145.964 8.88457 152.908 11.8461 160.159 11.8461H162.814L159.342 8.16972C154.338 2.96152 147.394 0 140.143 0H139.326H137.488H136.671C129.42 0 122.476 2.96152 117.472 8.16972L114 11.8461H116.655C123.906 11.8461 130.85 8.88457 135.854 3.67637Z" fill="#1D8500"/>
        <path d="M140.96 20.0158L138.407 22.6709L135.854 20.0158C130.85 14.8076 123.906 11.846 116.655 11.846H114L117.472 15.5224C122.476 20.7306 129.42 23.6921 136.671 23.6921H137.488H139.326H140.143C147.394 23.6921 154.338 20.7306 159.342 15.5224L162.814 11.846H160.159C152.908 11.846 145.964 14.8076 140.96 20.0158Z" fill="#1D8500"/>
        <path d="M184.668 3.67637L187.221 1.02122L189.774 3.67637C194.778 8.88457 201.722 11.8461 208.973 11.8461H211.628L208.156 8.16972C203.152 2.96152 196.208 0 188.957 0H188.14H186.302H185.485C178.234 0 171.29 2.96152 166.286 8.16972L162.814 11.8461H165.469C172.72 11.8461 179.664 8.88457 184.668 3.67637Z" fill="#1D8500"/>
        <path d="M189.774 20.0158L187.221 22.6709L184.668 20.0158C179.664 14.8076 172.72 11.846 165.469 11.846H162.814L166.286 15.5224C171.29 20.7306 178.234 23.6921 185.485 23.6921H186.302H188.14H188.957C196.208 23.6921 203.152 20.7306 208.156 15.5224L211.628 11.846H208.973C201.722 11.846 194.778 14.8076 189.774 20.0158Z" fill="#1D8500"/>
        <path d="M233.482 3.67637L236.035 1.02122L238.588 3.67637C243.592 8.88457 250.537 11.8461 257.787 11.8461H260.443L256.97 8.16972C251.966 2.96152 245.022 0 237.772 0H236.955H235.116H234.299C227.049 0 220.105 2.96152 215.101 8.16972L211.628 11.8461H214.284C221.534 11.8461 228.478 8.88457 233.482 3.67637Z" fill="#1D8500"/>
        <path d="M238.588 20.0158L236.035 22.6709L233.482 20.0158C228.478 14.8076 221.534 11.846 214.283 11.846H211.628L215.1 15.5224C220.104 20.7306 227.049 23.6921 234.299 23.6921H235.116H236.954H237.771C245.022 23.6921 251.966 20.7306 256.97 15.5224L260.442 11.846H257.787C250.537 11.846 243.592 14.8076 238.588 20.0158Z" fill="#1D8500"/>
        <path d="M282.296 3.67637L284.849 1.02122L287.402 3.67637C292.406 8.88457 299.351 11.8461 306.601 11.8461H309.256L305.784 8.16972C300.78 2.96152 293.836 0 286.585 0H285.769H283.93H283.113C275.863 0 268.918 2.96152 263.915 8.16972L260.442 11.8461H263.098C270.348 11.8461 277.292 8.88457 282.296 3.67637Z" fill="#1D8500"/>
        <path d="M287.402 20.0158L284.849 22.6709L282.296 20.0158C277.292 14.8076 270.348 11.846 263.097 11.846H260.442L263.914 15.5224C268.918 20.7306 275.863 23.6921 283.113 23.6921H283.93H285.768H286.585C293.836 23.6921 300.78 20.7306 305.784 15.5224L309.256 11.846H306.601C299.351 11.846 292.406 14.8076 287.402 20.0158Z" fill="#1D8500"/>
    </g>
    <g opacity="0.2">
        <path d="M21.854 29.1124L24.407 26.4573L26.9601 29.1124C31.964 34.3206 38.9083 37.2821 46.1589 37.2821H48.8141L45.342 33.6058C40.338 28.3976 33.3937 25.436 26.1431 25.436H25.3261H23.4879H22.671C15.4204 25.436 8.47609 28.3976 3.47213 33.6058L0 37.2821H2.65516C9.90579 37.2821 16.85 34.3206 21.854 29.1124Z" fill="#1D8500"/>
        <path d="M26.96 45.4518L24.4069 48.107L21.8539 45.4518C16.8499 40.2436 9.90567 37.2821 2.65504 37.2821H-0.00012207L3.47201 40.9585C8.47597 46.1666 15.4202 49.1282 22.6709 49.1282H23.4878H25.326H26.143C33.3936 49.1282 40.3379 46.1666 45.3418 40.9585L48.814 37.2821H46.1588C38.9082 37.2821 31.9639 40.2436 26.96 45.4518Z" fill="#1D8500"/>
        <path d="M70.668 29.1124L73.221 26.4573L75.774 29.1124C80.778 34.3206 87.7223 37.2821 94.9729 37.2821H97.6281L94.1559 33.6058C89.152 28.3976 82.2077 25.436 74.9571 25.436H74.1401H72.3019H71.4849C64.2343 25.436 57.2901 28.3976 52.2861 33.6058L48.814 37.2821H51.4691C58.7198 37.2821 65.664 34.3206 70.668 29.1124Z" fill="#1D8500"/>
        <path d="M75.7739 45.4518L73.2209 48.107L70.6679 45.4518C65.6639 40.2436 58.7196 37.2821 51.469 37.2821H48.8138L52.286 40.9585C57.2899 46.1666 64.2342 49.1282 71.4848 49.1282H72.3018H74.14H74.957C82.2076 49.1282 89.1518 46.1666 94.1558 40.9585L97.6279 37.2821H94.9728C87.7221 37.2821 80.7779 40.2436 75.7739 45.4518Z" fill="#1D8500"/>
        <path d="M119.482 29.1124L122.035 26.4573L124.588 29.1124C129.592 34.3206 136.537 37.2821 143.787 37.2821H146.443L142.97 33.6058C137.966 28.3976 131.022 25.436 123.772 25.436H122.955H121.116H120.299C113.049 25.436 106.105 28.3976 101.101 33.6058L97.6284 37.2821H100.284C107.534 37.2821 114.478 34.3206 119.482 29.1124Z" fill="#1D8500"/>
        <path d="M124.588 45.4518L122.035 48.107L119.482 45.4518C114.478 40.2436 107.534 37.2821 100.283 37.2821H97.6283L101.1 40.9585C106.104 46.1666 113.049 49.1282 120.299 49.1282H121.116H122.954H123.771C131.022 49.1282 137.966 46.1666 142.97 40.9585L146.442 37.2821H143.787C136.537 37.2821 129.592 40.2436 124.588 45.4518Z" fill="#1D8500"/>
        <path d="M168.296 29.1124L170.849 26.4573L173.402 29.1124C178.406 34.3206 185.351 37.2821 192.601 37.2821H195.256L191.784 33.6058C186.78 28.3976 179.836 25.436 172.585 25.436H171.769H169.93H169.113C161.863 25.436 154.918 28.3976 149.915 33.6058L146.442 37.2821H149.098C156.348 37.2821 163.292 34.3206 168.296 29.1124Z" fill="#1D8500"/>
        <path d="M173.402 45.4518L170.849 48.107L168.296 45.4518C163.292 40.2436 156.348 37.2821 149.097 37.2821H146.442L149.914 40.9585C154.918 46.1666 161.863 49.1282 169.113 49.1282H169.93H171.768H172.585C179.836 49.1282 186.78 46.1666 191.784 40.9585L195.256 37.2821H192.601C185.351 37.2821 178.406 40.2436 173.402 45.4518Z" fill="#1D8500"/>
        <path d="M217.11 29.1124L219.663 26.4573L222.216 29.1124C227.22 34.3206 234.165 37.2821 241.415 37.2821H244.07L240.598 33.6058C235.594 28.3976 228.65 25.436 221.399 25.436H220.582H218.744H217.927C210.677 25.436 203.732 28.3976 198.728 33.6058L195.256 37.2821H197.912C205.162 37.2821 212.106 34.3206 217.11 29.1124Z" fill="#1D8500"/>
        <path d="M222.216 45.4518L219.663 48.107L217.11 45.4518C212.106 40.2436 205.162 37.2821 197.911 37.2821H195.256L198.728 40.9585C203.732 46.1666 210.677 49.1282 217.927 49.1282H218.744H220.582H221.399C228.65 49.1282 235.594 46.1666 240.598 40.9585L244.07 37.2821H241.415C234.165 37.2821 227.22 40.2436 222.216 45.4518Z" fill="#1D8500"/>
        <path d="M265.924 29.1124L268.477 26.4573L271.03 29.1124C276.034 34.3206 282.979 37.2821 290.229 37.2821H292.884L289.412 33.6058C284.408 28.3976 277.464 25.436 270.213 25.436H269.396H267.558H266.741C259.491 25.436 252.546 28.3976 247.542 33.6058L244.07 37.2821H246.725C253.976 37.2821 260.92 34.3206 265.924 29.1124Z" fill="#1D8500"/>
        <path d="M271.03 45.4518L268.477 48.107L265.924 45.4518C260.92 40.2436 253.976 37.2821 246.725 37.2821H244.07L247.542 40.9585C252.546 46.1666 259.491 49.1282 266.741 49.1282H267.558H269.396H270.213C277.464 49.1282 284.408 46.1666 289.412 40.9585L292.884 37.2821H290.229C282.978 37.2821 276.034 40.2436 271.03 45.4518Z" fill="#1D8500"/>
        <path d="M314.739 29.1124L317.292 26.4573L319.845 29.1124C324.849 34.3206 331.793 37.2821 339.044 37.2821H341.699L338.227 33.6058C333.223 28.3976 326.278 25.436 319.028 25.436H318.211H316.373H315.556C308.305 25.436 301.361 28.3976 296.357 33.6058L292.885 37.2821H295.54C302.791 37.2821 309.735 34.3206 314.739 29.1124Z" fill="#1D8500"/>
        <path d="M319.845 45.4518L317.292 48.107L314.739 45.4518C309.735 40.2436 302.79 37.2821 295.54 37.2821H292.885L296.357 40.9585C301.361 46.1666 308.305 49.1282 315.556 49.1282H316.373H318.211H319.028C326.278 49.1282 333.223 46.1666 338.227 40.9585L341.699 37.2821H339.044C331.793 37.2821 324.849 40.2436 319.845 45.4518Z" fill="#1D8500"/>
    </g>
    <g opacity="0.6">
        <path d="M95.854 54.5482L98.407 51.893L100.96 54.5482C105.964 59.7564 112.908 62.7179 120.159 62.7179H122.814L119.342 59.0415C114.338 53.8334 107.394 50.8718 100.143 50.8718H99.3261H97.4879H96.671C89.4204 50.8718 82.4761 53.8334 77.4721 59.0415L74 62.7179H76.6552C83.9058 62.7179 90.85 59.7564 95.854 54.5482Z" fill="#1D8500"/>
        <path d="M100.96 70.8876L98.4069 73.5427L95.8539 70.8876C90.8499 65.6794 83.9057 62.7179 76.655 62.7179H73.9999L77.472 66.3942C82.476 71.6024 89.4202 74.564 96.6709 74.564H97.4878H99.326H100.143C107.394 74.564 114.338 71.6024 119.342 66.3942L122.814 62.7179H120.159C112.908 62.7179 105.964 65.6794 100.96 70.8876Z" fill="#1D8500"/>
        <path d="M144.668 54.5482L147.221 51.893L149.774 54.5482C154.778 59.7564 161.722 62.7179 168.973 62.7179H171.628L168.156 59.0415C163.152 53.8334 156.208 50.8718 148.957 50.8718H148.14H146.302H145.485C138.234 50.8718 131.29 53.8334 126.286 59.0415L122.814 62.7179H125.469C132.72 62.7179 139.664 59.7564 144.668 54.5482Z" fill="#1D8500"/>
        <path d="M149.774 70.8876L147.221 73.5427L144.668 70.8876C139.664 65.6794 132.72 62.7179 125.469 62.7179H122.814L126.286 66.3942C131.29 71.6024 138.234 74.564 145.485 74.564H146.302H148.14H148.957C156.208 74.564 163.152 71.6024 168.156 66.3942L171.628 62.7179H168.973C161.722 62.7179 154.778 65.6794 149.774 70.8876Z" fill="#1D8500"/>
        <path d="M193.482 54.5482L196.035 51.893L198.588 54.5482C203.592 59.7564 210.537 62.7179 217.787 62.7179H220.443L216.97 59.0415C211.966 53.8334 205.022 50.8718 197.772 50.8718H196.955H195.116H194.299C187.049 50.8718 180.105 53.8334 175.101 59.0415L171.628 62.7179H174.284C181.534 62.7179 188.478 59.7564 193.482 54.5482Z" fill="#1D8500"/>
        <path d="M198.588 70.8876L196.035 73.5427L193.482 70.8876C188.478 65.6794 181.534 62.7179 174.283 62.7179H171.628L175.1 66.3942C180.104 71.6024 187.049 74.564 194.299 74.564H195.116H196.954H197.771C205.022 74.564 211.966 71.6024 216.97 66.3942L220.442 62.7179H217.787C210.537 62.7179 203.592 65.6794 198.588 70.8876Z" fill="#1D8500"/>
        <path d="M242.296 54.5482L244.849 51.893L247.402 54.5482C252.406 59.7564 259.351 62.7179 266.601 62.7179H269.256L265.784 59.0415C260.78 53.8334 253.836 50.8718 246.585 50.8718H245.769H243.93H243.113C235.863 50.8718 228.918 53.8334 223.915 59.0415L220.442 62.7179H223.098C230.348 62.7179 237.292 59.7564 242.296 54.5482Z" fill="#1D8500"/>
        <path d="M247.402 70.8876L244.849 73.5427L242.296 70.8876C237.292 65.6794 230.348 62.7179 223.097 62.7179H220.442L223.914 66.3942C228.918 71.6024 235.863 74.564 243.113 74.564H243.93H245.768H246.585C253.836 74.564 260.78 71.6024 265.784 66.3942L269.256 62.7179H266.601C259.351 62.7179 252.406 65.6794 247.402 70.8876Z" fill="#1D8500"/>
        <path d="M291.11 54.5482L293.663 51.893L296.216 54.5482C301.22 59.7564 308.165 62.7179 315.415 62.7179H318.07L314.598 59.0415C309.594 53.8334 302.65 50.8718 295.399 50.8718H294.582H292.744H291.927C284.677 50.8718 277.732 53.8334 272.728 59.0415L269.256 62.7179H271.912C279.162 62.7179 286.106 59.7564 291.11 54.5482Z" fill="#1D8500"/>
        <path d="M296.216 70.8876L293.663 73.5427L291.11 70.8876C286.106 65.6794 279.162 62.7179 271.911 62.7179H269.256L272.728 66.3942C277.732 71.6024 284.677 74.564 291.927 74.564H292.744H294.582H295.399C302.65 74.564 309.594 71.6024 314.598 66.3942L318.07 62.7179H315.415C308.165 62.7179 301.22 65.6794 296.216 70.8876Z" fill="#1D8500"/>
    </g>
    <g opacity="0.2">
        <path d="M115.854 79.9842L118.407 77.3291L120.96 79.9842C125.964 85.1924 132.908 88.154 140.159 88.154H142.814L139.342 84.4776C134.338 79.2694 127.394 76.3079 120.143 76.3079H119.326H117.488H116.671C109.42 76.3079 102.476 79.2694 97.4721 84.4776L94 88.154H96.6552C103.906 88.154 110.85 85.1924 115.854 79.9842Z" fill="#1D8500"/>
        <path d="M120.96 96.3236L118.407 98.9788L115.854 96.3236C110.85 91.1154 103.906 88.1539 96.655 88.1539H93.9999L97.472 91.8303C102.476 97.0385 109.42 100 116.671 100H117.488H119.326H120.143C127.394 100 134.338 97.0385 139.342 91.8303L142.814 88.1539H140.159C132.908 88.1539 125.964 91.1154 120.96 96.3236Z" fill="#1D8500"/>
        <path d="M164.668 79.9842L167.221 77.3291L169.774 79.9842C174.778 85.1924 181.722 88.154 188.973 88.154H191.628L188.156 84.4776C183.152 79.2694 176.208 76.3079 168.957 76.3079H168.14H166.302H165.485C158.234 76.3079 151.29 79.2694 146.286 84.4776L142.814 88.154H145.469C152.72 88.154 159.664 85.1924 164.668 79.9842Z" fill="#1D8500"/>
        <path d="M169.774 96.3236L167.221 98.9788L164.668 96.3236C159.664 91.1154 152.72 88.1539 145.469 88.1539H142.814L146.286 91.8303C151.29 97.0385 158.234 100 165.485 100H166.302H168.14H168.957C176.208 100 183.152 97.0385 188.156 91.8303L191.628 88.1539H188.973C181.722 88.1539 174.778 91.1154 169.774 96.3236Z" fill="#1D8500"/>
        <path d="M213.482 79.9842L216.035 77.3291L218.588 79.9842C223.592 85.1924 230.537 88.154 237.787 88.154H240.443L236.97 84.4776C231.966 79.2694 225.022 76.3079 217.772 76.3079H216.955H215.116H214.299C207.049 76.3079 200.105 79.2694 195.101 84.4776L191.628 88.154H194.284C201.534 88.154 208.478 85.1924 213.482 79.9842Z" fill="#1D8500"/>
        <path d="M218.588 96.3236L216.035 98.9788L213.482 96.3236C208.478 91.1154 201.534 88.1539 194.283 88.1539H191.628L195.1 91.8303C200.104 97.0385 207.049 100 214.299 100H215.116H216.954H217.771C225.022 100 231.966 97.0385 236.97 91.8303L240.442 88.1539H237.787C230.537 88.1539 223.592 91.1154 218.588 96.3236Z" fill="#1D8500"/>
        <path d="M262.296 79.9842L264.849 77.3291L267.402 79.9842C272.406 85.1924 279.351 88.154 286.601 88.154H289.256L285.784 84.4776C280.78 79.2694 273.836 76.3079 266.585 76.3079H265.769H263.93H263.113C255.863 76.3079 248.918 79.2694 243.915 84.4776L240.442 88.154H243.098C250.348 88.154 257.292 85.1924 262.296 79.9842Z" fill="#1D8500"/>
        <path d="M267.402 96.3236L264.849 98.9788L262.296 96.3236C257.292 91.1154 250.348 88.1539 243.097 88.1539H240.442L243.914 91.8303C248.918 97.0385 255.863 100 263.113 100H263.93H265.768H266.585C273.836 100 280.78 97.0385 285.784 91.8303L289.256 88.1539H286.601C279.351 88.1539 272.406 91.1154 267.402 96.3236Z" fill="#1D8500"/>
        <path d="M311.11 79.9842L313.663 77.3291L316.216 79.9842C321.22 85.1924 328.165 88.154 335.415 88.154H338.07L334.598 84.4776C329.594 79.2694 322.65 76.3079 315.399 76.3079H314.582H312.744H311.927C304.677 76.3079 297.732 79.2694 292.728 84.4776L289.256 88.154H291.912C299.162 88.154 306.106 85.1924 311.11 79.9842Z" fill="#1D8500"/>
        <path d="M316.216 96.3236L313.663 98.9788L311.11 96.3236C306.106 91.1154 299.162 88.1539 291.911 88.1539H289.256L292.728 91.8303C297.732 97.0385 304.677 100 311.927 100H312.744H314.582H315.399C322.65 100 329.594 97.0385 334.598 91.8303L338.07 88.1539H335.415C328.165 88.1539 321.22 91.1154 316.216 96.3236Z" fill="#1D8500"/>
    </g>
</svg>
