<svg width="16" height="17" viewBox="0 0 16 17" fill="none"
    xmlns="http://www.w3.org/2000/svg">
    <circle cx="8" cy="8.5" r="8" fill="#C5B0D8"/>
    <path d="M7.15417 5.09895L7.90973 3.80873C7.92306 3.78251 7.95595 3.78251 7.96217 3.80873L11.6964 10.1954C11.7026 10.2083 11.6964 10.2207 11.6902 10.2341L9.53906 12.6518C9.5322 12.659 9.52312 12.6637 9.51328 12.6652H7.76661C7.73417 12.6652 7.72128 12.6327 7.74039 12.6132L8.90706 11.2963L10.0022 10.0714C10.0151 10.0581 10.0151 10.0452 10.0084 10.0323L7.15417 5.1314C7.1475 5.12517 7.1475 5.11228 7.15417 5.09895Z" fill="#3D0073"/>
    <path d="M8.27514 11.3561L7.11514 12.6596C7.11158 12.6632 7.10714 12.6666 7.1018 12.6699L7.08847 12.6792H6.35958C6.34625 12.6792 6.34003 12.6725 6.33336 12.6659L4.18314 10.2485C4.18022 10.2425 4.17871 10.2359 4.17871 10.2292C4.17871 10.2225 4.18022 10.2159 4.18314 10.2099L6.86091 5.60808C6.87425 5.58897 6.90669 5.58897 6.91958 5.60808L7.66891 6.89875C7.67558 6.90497 7.67558 6.91831 7.66891 6.93119L5.8578 10.0396C5.85114 10.053 5.8578 10.0659 5.86447 10.0788L6.94625 11.2912C6.95329 11.2983 6.96253 11.3029 6.97247 11.3041H8.24936C8.28225 11.3041 8.29469 11.3365 8.27514 11.3561Z" fill="#3D0073"/>
</svg>
