<svg width="32" height="31" viewBox="0 0 32 31" fill="none"
    xmlns="http://www.w3.org/2000/svg">
    <circle cx="16" cy="15.5" r="15.25" fill="white"/>
    <path d="M16.3525 21.4677C15.4805 21.4677 14.6605 21.3023 13.8923 20.9715C13.1246 20.6402 12.4566 20.1907 11.8884 19.623C11.3202 19.0552 10.8705 18.388 10.5392 17.6212C10.2079 16.8544 10.0423 16.0346 10.0423 15.1617C10.0423 14.2889 10.2079 13.4688 10.5392 12.7016C10.87 11.9339 11.3188 11.2659 11.8856 10.6977C12.4524 10.1295 13.1199 9.67979 13.8881 9.3485C14.6563 9.01721 15.4763 8.85156 16.3482 8.85156C17.2202 8.85156 18.0402 9.01721 18.8084 9.3485C19.5761 9.67932 20.2441 10.1284 20.8123 10.6956C21.3805 11.2629 21.8302 11.9304 22.1615 12.6981C22.4928 13.4658 22.6584 14.2856 22.6584 15.1575C22.6584 16.0295 22.493 16.8495 22.1622 17.6177C21.8314 18.3859 21.3819 19.0538 20.8137 19.6216C20.2455 20.1893 19.5782 20.639 18.8119 20.9708C18.0456 21.3025 17.2258 21.4682 16.3525 21.4677ZM15.6494 20.7318V19.365C15.264 19.365 14.9341 19.2279 14.6598 18.9536C14.3855 18.6793 14.2481 18.3492 14.2477 17.9632V17.2623L10.8833 13.898C10.8483 14.1083 10.8163 14.3186 10.7873 14.5288C10.7584 14.7391 10.7436 14.9494 10.7432 15.1596C10.7432 16.5731 11.2076 17.8114 12.1365 18.8744C13.0655 19.9374 14.2364 20.5566 15.6494 20.7318ZM20.4856 18.9445C20.7193 18.6875 20.9295 18.4102 21.1165 18.1125C21.3034 17.8149 21.458 17.5053 21.5804 17.1838C21.7029 16.8624 21.7963 16.5322 21.8608 16.1935C21.9253 15.8547 21.9575 15.5101 21.9575 15.1596C21.9575 14.0083 21.6414 12.9567 21.0092 12.0049C20.377 11.0531 19.5249 10.3669 18.453 9.94636V10.2534C18.453 10.6389 18.3159 10.969 18.0416 11.2437C17.7673 11.5185 17.4372 11.6556 17.0512 11.6552H15.6494V13.0569C15.6494 13.2555 15.5822 13.4221 15.4476 13.5567C15.313 13.6913 15.1467 13.7583 14.9486 13.7578H13.5468V15.1596H17.7521C17.9507 15.1596 18.1173 15.2269 18.2519 15.3615C18.3865 15.4961 18.4535 15.6624 18.453 15.8605V17.9632H19.1539C19.4577 17.9632 19.7322 18.0539 19.9775 18.2352C20.2228 18.4165 20.3922 18.6529 20.4856 18.9445Z" fill="#3D0073"/>
</svg>
