<svg width="28" height="28" viewBox="0 0 28 28" fill="none"
    xmlns="http://www.w3.org/2000/svg">
    <path d="M14.017 26.5455C20.9457 26.5455 26.5625 20.9287 26.5625 14C26.5625 7.07134 20.9457 1.45455 14.017 1.45455C12.2143 1.45455 10.4957 2.17222 8.96211 3.22363C7.42688 4.27618 6.04513 5.6845 4.90302 7.12361C3.76012 8.56369 2.84326 10.0522 2.24323 11.2812C1.94377 11.8946 1.71725 12.4554 1.58256 12.9216C1.51534 13.1542 1.46734 13.3756 1.44763 13.5756C1.429 13.7646 1.42977 13.9874 1.50632 14.1915C1.78976 14.9474 3.15582 17.9945 5.29605 20.8635C7.41121 23.6988 10.4203 26.5455 14.017 26.5455Z" stroke="#6E6C6C" stroke-width="1.09091"/>
    <path d="M16.2061 10.2962L12.896 13.5555L16.148 16.8727L15.1289 17.8739L10.8686 13.5376L15.2049 9.27721L16.2061 10.2962Z" fill="black"/>
</svg>
