<svg width="16" height="17" viewBox="0 0 16 17" fill="none"
    xmlns="http://www.w3.org/2000/svg">
    <circle cx="8" cy="8.52344" r="8" fill="#440080"/>
    <path d="M8.00001 12.7855C8.66668 12.7855 9.23343 12.5522 9.70028 12.0857C10.1671 11.6192 10.4004 11.0525 10.4 10.3855C10.3997 9.71844 10.1664 9.15186 9.70028 8.68573C9.23414 8.21959 8.66739 7.98617 8.00001 7.98546C7.33263 7.98475 6.76606 8.21817 6.30028 8.68573C5.8345 9.15328 5.60108 9.71986 5.60001 10.3855C5.59895 11.0511 5.83237 11.6178 6.30028 12.0857C6.76819 12.5536 7.33477 12.7869 8.00001 12.7855ZM6.46081 7.89746C6.63148 7.78582 6.81334 7.69604 7.00641 7.62813C7.19983 7.56022 7.39877 7.51044 7.60321 7.4788L6.38934 5.0724H5.05601L6.46081 7.89746ZM9.53921 7.89746L10.9568 5.0724H9.61068L8.44641 7.38013L8.50508 7.49746C8.69103 7.53302 8.87094 7.5828 9.04481 7.6468C9.21832 7.7108 9.3833 7.79435 9.53974 7.89746M5.45495 12.2175C5.46099 12.1577 5.47486 12.092 5.49655 12.0201C5.51788 11.9476 5.54917 11.8712 5.59041 11.7908C5.42615 11.5252 5.30757 11.2384 5.23468 10.9305C5.16179 10.6226 5.14295 10.3056 5.17815 9.9796C5.17815 9.71293 5.22437 9.45977 5.31681 9.22013C5.4089 8.98084 5.5369 8.76555 5.70081 8.57426C5.57388 8.59595 5.46206 8.64146 5.36535 8.71079C5.26935 8.78048 5.20072 8.86351 5.15948 8.95986C4.76303 9.05622 4.45388 9.27933 4.23201 9.62919C4.0105 9.97871 3.94295 10.3663 4.02935 10.7919C4.02935 11.1883 4.16783 11.525 4.44481 11.802C4.72143 12.0786 5.05815 12.2175 5.45495 12.2175ZM10.5461 12.2169C11.029 12.1885 11.4365 11.9993 11.7685 11.6495C12.101 11.3 12.2672 10.8786 12.2672 10.3855C12.2672 9.89231 12.101 9.47097 11.7685 9.12146C11.4361 8.77195 11.0286 8.58262 10.5461 8.55346C10.5053 8.55346 10.4644 8.55524 10.4235 8.55879C10.3822 8.56235 10.341 8.56751 10.2997 8.57426C10.4989 8.82528 10.6542 9.10475 10.7659 9.41266C10.8779 9.72057 10.9339 10.0448 10.9339 10.3855C10.9339 10.7261 10.8781 11.0503 10.7664 11.3583C10.6544 11.6662 10.499 11.9456 10.3003 12.1967C10.3412 12.2038 10.3821 12.2089 10.4229 12.2121C10.4642 12.2157 10.5053 12.2169 10.5461 12.2169ZM8.00001 13.3188C7.65832 13.3188 7.33548 13.266 7.03148 13.1604C6.72748 13.0548 6.45139 12.9028 6.20321 12.7044C6.10934 12.736 6.0105 12.7574 5.90668 12.7684C5.80286 12.7794 5.69619 12.7851 5.58668 12.7855C4.92819 12.7855 4.36588 12.5524 3.89975 12.0863C3.43361 11.6201 3.20037 11.0576 3.20001 10.3988C3.20001 9.74848 3.42703 9.19222 3.88108 8.73C4.33512 8.26777 4.88517 8.02955 5.53121 8.01533C5.60659 8.01533 5.67841 8.02048 5.74668 8.0308C5.81495 8.04075 5.88321 8.05266 5.95148 8.06653L4.18455 4.5396H6.72855L8.00001 7.08306L9.27201 4.53906H11.8155L10.0715 8.02973C10.1333 8.01586 10.1968 8.00555 10.2619 7.99879C10.3266 7.99168 10.3933 7.98813 10.4619 7.98813C11.1147 8.00484 11.6676 8.24431 12.1205 8.70653C12.5735 9.16875 12.8 9.72839 12.8 10.3855C12.8 11.0528 12.5669 11.6198 12.1008 12.0863C11.6347 12.5527 11.0677 12.7858 10.4 12.7855C10.2926 12.7855 10.1883 12.7798 10.0869 12.7684C9.98561 12.757 9.88783 12.7357 9.79361 12.7044C9.54579 12.896 9.27023 13.0463 8.96694 13.1551C8.66366 13.2639 8.34134 13.3184 8.00001 13.3188ZM7.16748 11.6057L7.47894 10.5769L6.64641 9.98333H7.67521L8.00001 8.89853L8.32534 9.98333H9.35414L8.52108 10.5775L8.83308 11.6063L8.00001 10.9721L7.16748 11.6057Z" fill="#FEFEFE"/>
</svg>
