<svg width="32" height="33" viewBox="0 0 32 33" fill="none"
    xmlns="http://www.w3.org/2000/svg">
    <g clip-path="url(#clip0_184_34)">
        <path fill-rule="evenodd" clip-rule="evenodd" d="M16 0.193115C24.837 0.193115 32 7.35612 32 16.1931C32 25.0301 24.837 32.1931 16 32.1931C7.163 32.1931 0 25.0301 0 16.1931C0 7.35612 7.163 0.193115 16 0.193115ZM19.352 5.75312C19.108 5.63312 18.864 5.75312 18.804 5.99612C18.743 6.05712 18.743 6.11812 18.743 6.23912V7.08912L18.753 7.19312C18.8052 7.39884 18.9317 7.578 19.108 7.69612C23.862 9.39612 26.3 14.6761 24.532 19.3491C23.618 21.8991 21.607 23.8401 19.108 24.7511C18.864 24.8721 18.743 25.0541 18.743 25.3581V26.2081L18.748 26.2961C18.7575 26.3921 18.7976 26.4826 18.8625 26.5541C18.9273 26.6255 19.0134 26.6743 19.108 26.6931C19.169 26.6931 19.291 26.6931 19.352 26.6331C20.7236 26.2048 21.9969 25.5094 23.0986 24.5869C24.2003 23.6645 25.1086 22.5332 25.7714 21.2583C26.4341 19.9833 26.838 18.5899 26.96 17.1582C27.082 15.7265 26.9195 14.2848 26.482 12.9161C25.386 9.45611 22.704 6.84512 19.352 5.75312ZM12.892 5.69312C12.831 5.69312 12.709 5.69312 12.648 5.75312C11.2764 6.18144 10.0031 6.87684 8.90142 7.79929C7.79971 8.72173 6.89135 9.85299 6.22864 11.1279C5.56594 12.4029 5.16197 13.7963 5.04001 15.228C4.91805 16.6597 5.08049 18.1014 5.518 19.4701C6.614 22.8701 9.235 25.4801 12.648 26.5721C12.892 26.6931 13.136 26.5721 13.196 26.3291C13.257 26.2691 13.257 26.2071 13.257 26.0861V25.2361L13.247 25.1561C13.205 24.9871 13.048 24.7941 12.892 24.6901C8.138 22.9901 5.7 17.7101 7.468 13.0371C8.382 10.4871 10.393 8.54611 12.892 7.63512C13.136 7.51412 13.257 7.33212 13.257 7.02812V6.17812L13.252 6.09012C13.2425 5.99409 13.2024 5.90366 13.1375 5.83218C13.0727 5.7607 12.9866 5.71194 12.892 5.69312ZM16.427 8.84912H15.512L15.424 8.85711C15.224 8.89711 15.078 9.06912 15.024 9.33512V10.7311L14.817 10.7631C13.109 11.0671 12.039 12.2461 12.039 13.7051C12.039 15.7071 13.257 16.4961 15.817 16.8001C17.524 17.1031 18.072 17.4681 18.072 18.4391C18.072 19.4091 17.219 20.0771 16.061 20.0771C14.476 20.0771 13.928 19.4101 13.745 18.4991C13.685 18.2571 13.501 18.1351 13.318 18.1351H12.282L12.203 18.1421C12.1044 18.158 12.0149 18.2092 11.9511 18.286C11.8873 18.3629 11.8535 18.4603 11.856 18.5601V18.6201L11.889 18.8001C12.179 20.2241 13.155 21.2431 15.086 21.5341V22.9911L15.094 23.0791C15.134 23.2771 15.307 23.4231 15.574 23.4761H16.488L16.576 23.4681C16.776 23.4281 16.922 23.2561 16.976 22.9911V21.5331L17.183 21.4931C18.896 21.1311 20.023 19.8921 20.023 18.3161C20.023 16.1921 18.743 15.4641 16.183 15.1601C14.354 14.9171 13.989 14.4321 13.989 13.5821C13.989 12.7321 14.599 12.1861 15.817 12.1861C16.914 12.1861 17.524 12.5501 17.828 13.4611C17.8597 13.5492 17.9176 13.6255 17.9939 13.6796C18.0703 13.7338 18.1614 13.7633 18.255 13.7641H19.23L19.309 13.7581C19.408 13.7424 19.4978 13.6912 19.5619 13.6141C19.6259 13.537 19.6597 13.4393 19.657 13.3391V13.2791L19.62 13.1061C19.4699 12.4845 19.1275 11.9261 18.6417 11.5103C18.1559 11.0945 17.5513 10.8425 16.914 10.7901V9.33512L16.906 9.24712C16.866 9.04811 16.694 8.90212 16.427 8.84912Z" fill="white"/>
    </g>
    <defs>
        <clipPath id="clip0_184_34">
            <rect width="32" height="32" fill="white" transform="translate(0 0.193115)"/>
        </clipPath>
    </defs>
</svg>
