<svg width="17" height="17" viewBox="0 0 17 17" fill="none"
    xmlns="http://www.w3.org/2000/svg">
    <circle cx="8.5" cy="8.5" r="8" fill="#C5B0D8"/>
    <path d="M8.23338 11.7908L3.78894 7.40635L5.4845 4.67969H10.9823L12.6778 7.40635L8.23338 11.7908ZM8.67783 7.7908V7.24858C9.47783 7.28858 10.2245 7.44413 10.4556 7.64635C10.1867 7.88191 9.22449 8.05302 8.23338 8.05302C7.24227 8.05302 6.28005 7.88191 6.01116 7.64635C6.24005 7.44413 6.98894 7.2908 7.78894 7.24635V7.7908H8.67783ZM6.01116 7.64413V7.9708C6.24005 8.17302 6.98672 8.32635 7.78894 8.3708V9.56858H8.67783V8.36858C9.47783 8.32858 10.2267 8.17302 10.4556 7.9708V7.31969C10.2267 7.11747 9.47783 6.96191 8.67783 6.91969V6.45747H10.0112V5.7908H6.45561V6.45747H7.78894V6.91969C6.98672 6.96191 6.24005 7.11747 6.01116 7.31969V7.64413Z" fill="#009393"/>
</svg>
