<svg width="16" height="17" viewBox="0 0 16 17" fill="none"
    xmlns="http://www.w3.org/2000/svg">
    <circle cx="8" cy="8.5" r="8" fill="#C5B0D8"/>
    <path fill-rule="evenodd" clip-rule="evenodd" d="M6.86659 11.8783C6.86659 12.005 6.76659 12.0717 6.64659 12.0383C5.83972 11.7802 5.13573 11.2725 4.63623 10.5882C4.13673 9.90404 3.86755 9.07881 3.86755 8.23167C3.86755 7.38454 4.13673 6.55931 4.63623 5.8751C5.13573 5.19089 5.83972 4.6831 6.64659 4.42501C6.76659 4.38501 6.86659 4.45834 6.86659 4.58501V4.89167C6.86659 4.97834 6.79992 5.07167 6.71992 5.09834C5.44659 5.56501 4.53325 6.79167 4.53325 8.22501C4.53325 9.65834 5.44659 10.885 6.71992 11.3517C6.79992 11.3783 6.86659 11.4783 6.86659 11.5583V11.8717V11.8783Z" fill="#3D0073"/>
    <path fill-rule="evenodd" clip-rule="evenodd" d="M8.19998 10.728C8.19998 10.8214 8.12665 10.8947 8.03331 10.8947H7.69998C7.60665 10.8947 7.53331 10.8214 7.53331 10.728V10.2014C6.80665 10.1014 6.45331 9.69469 6.35331 9.14135C6.33331 9.04802 6.41331 8.96135 6.50665 8.96135H6.88665C6.96665 8.96135 7.03331 9.01469 7.04665 9.09469C7.11998 9.42802 7.30665 9.67469 7.89331 9.67469C8.32665 9.67469 8.62665 9.43469 8.62665 9.07469C8.62665 8.71469 8.44665 8.58135 7.81331 8.47469C6.87998 8.34802 6.43998 8.06802 6.43998 7.33469C6.43998 6.76802 6.86665 6.33469 7.52665 6.23469V5.72135C7.52665 5.62802 7.59998 5.55469 7.69331 5.55469H8.02665C8.11998 5.55469 8.19331 5.62802 8.19331 5.72135V6.25469C8.73331 6.34802 9.07331 6.65469 9.17998 7.16135C9.19998 7.25469 9.12665 7.34802 9.02665 7.34802H8.67331C8.59998 7.34802 8.53331 7.29469 8.51331 7.22802C8.41998 6.90802 8.18665 6.76802 7.79331 6.76802C7.35331 6.76802 7.12665 6.98135 7.12665 7.28135C7.12665 7.59469 7.25331 7.75469 7.93331 7.85469C8.84665 7.98135 9.31998 8.24135 9.31998 9.02135C9.31998 9.61469 8.87998 10.0947 8.19331 10.2014V10.728H8.19998Z" fill="#3D0073"/>
    <path fill-rule="evenodd" clip-rule="evenodd" d="M9.08658 12.0406C8.96658 12.0806 8.86658 12.0073 8.86658 11.8806V11.574C8.86658 11.4806 8.91991 11.394 9.01324 11.3673C10.2866 10.9006 11.1999 9.67396 11.1999 8.24063C11.1999 6.8073 10.2866 5.58063 9.01324 5.11396C8.97195 5.09663 8.93633 5.06809 8.91041 5.03157C8.88449 4.99505 8.86931 4.952 8.86658 4.9073V4.60063C8.86658 4.47396 8.96658 4.40063 9.08658 4.44063C10.6999 4.95396 11.8666 6.4673 11.8666 8.2473C11.8666 10.0273 10.6999 11.534 9.08658 12.054V12.0406Z" fill="#3D0073"/>
</svg>
