<svg width="33" height="33" viewBox="0 0 33 33" fill="none"
    xmlns="http://www.w3.org/2000/svg">
    <g clip-path="url(#clip0_184_406)">
        <path fill-rule="evenodd" clip-rule="evenodd" d="M16.5 32.1931C7.663 32.1931 0.5 25.0301 0.5 16.1931C0.5 7.35612 7.663 0.193115 16.5 0.193115C25.337 0.193115 32.5 7.35612 32.5 16.1931C32.5 25.0301 25.337 32.1931 16.5 32.1931ZM18.422 13.9861V11.6201H23.836V8.01212H9.095V11.6201H14.509V13.9851C10.109 14.1871 6.8 15.0591 6.8 16.1031C6.8 17.1471 10.109 18.0181 14.509 18.2211V25.8031H18.422V18.2191C22.815 18.0171 26.116 17.1461 26.116 16.1031C26.116 15.0601 22.815 14.1891 18.422 13.9861ZM18.422 17.5761V17.5741C18.312 17.5821 17.745 17.6161 16.48 17.6161C15.47 17.6161 14.759 17.5861 14.509 17.5741V17.5771C10.621 17.4061 7.719 16.7291 7.719 15.9191C7.719 15.1101 10.621 14.4331 14.509 14.2591V16.9031C14.763 16.9211 15.491 16.9641 16.497 16.9641C17.704 16.9641 18.309 16.9141 18.422 16.9041V14.2611C22.302 14.4341 25.197 15.1111 25.197 15.9191C25.197 16.7291 22.302 17.4041 18.422 17.5761Z" fill="white"/>
    </g>
    <defs>
        <clipPath id="clip0_184_406">
            <rect width="32" height="32" fill="white" transform="translate(0.5 0.193115)"/>
        </clipPath>
    </defs>
</svg>
